<?xml version="1.0" encoding="UTF-8"?>
<!DOCTYPE svg PUBLIC "-//W3C//DTD SVG 1.1//EN" "http://www.w3.org/Graphics/SVG/1.1/DTD/svg11.dtd">
<!-- Creator: CorelDRAW X8 -->
<svg xmlns="http://www.w3.org/2000/svg" xml:space="preserve" width="5.64759in" height="4.05209in" version="1.1" style="shape-rendering:geometricPrecision; text-rendering:geometricPrecision; image-rendering:optimizeQuality; fill-rule:evenodd; clip-rule:evenodd"
viewBox="0 0 3075 2206"
 xmlns:xlink="http://www.w3.org/1999/xlink">
 <defs>
  <style type="text/css">
   <![CDATA[
    .fil0 {fill:#0091E2}
   ]]>
  </style>
 </defs>
 <g id="Layer_x0020_1">
  <metadata id="CorelCorpID_0Corel-Layer"/>
  <g>
   <path class="fil0" d="M3045 834c-9,-7 -86,-65 -251,-65 -43,0 -87,4 -130,11 -31,-218 -212,-324 -220,-329l-44 -26 -28 41c-36,56 -63,119 -79,183 -30,124 -11,241 52,341 -76,42 -199,52 -224,54l-2025 0c-53,0 -96,43 -96,95 -3,177 27,354 89,521 69,182 174,318 308,401 151,92 398,145 676,145 125,0 251,-11 375,-34 172,-31 338,-91 490,-178 126,-73 238,-166 334,-274 161,-181 257,-384 326,-563l29 0c175,0 284,-70 344,-130 40,-37 70,-83 91,-134l13 -37 -30 -22zm-2761 151l271 0c13,0 24,-10 24,-24l0 -242c0,-13 -10,-25 -24,-25l-271 0c-13,0 -24,10 -24,25l0 242c1,14 11,24 24,24zm374 0l271 0c12,0 24,-10 24,-24l0 -242c0,-13 -10,-25 -24,-25l-271 0c-13,0 -25,10 -25,25l0 242c2,14 12,24 25,24l0 0zm380 0l271 0c13,0 25,-10 25,-24l0 -242c0,-13 -10,-25 -25,-25l-271 0c-12,0 -24,10 -24,25l0 242c0,14 10,24 24,24zm375 0l271 0c13,0 25,-10 25,-24l0 -242c0,-13 -10,-25 -25,-25l-271 0c-12,0 -24,10 -24,25l0 242c0,14 12,24 24,24zm-755 -346l271 0c12,0 24,-12 24,-24l0 -243c0,-13 -10,-24 -24,-24l-271 0c-13,0 -25,10 -25,24l0 243c2,12 12,24 25,24l0 0zm380 0l271 0c13,0 25,-12 25,-24l0 -243c0,-13 -10,-24 -25,-24l-271 0c-12,0 -24,10 -24,24l0 243c0,12 10,24 24,24l0 0zm375 0l271 0c13,0 25,-12 25,-24l0 -243c0,-13 -12,-24 -25,-24l-271 0c-12,0 -24,10 -24,24l0 243c0,12 12,24 24,24l0 0zm0 -348l271 0c13,0 25,-10 25,-24l0 -243c0,-13 -12,-24 -25,-24l-271 0c-12,0 -24,10 -24,24l0 243c0,13 12,24 24,24l0 0zm378 694l271 0c13,0 25,-10 25,-24l0 -242c0,-13 -10,-25 -25,-25l-271 0c-13,0 -24,10 -24,25l0 242c2,14 11,24 24,24z"/>
  </g>
 </g>
</svg>
