<?xml version="1.0" encoding="UTF-8"?>
<!DOCTYPE svg PUBLIC "-//W3C//DTD SVG 1.1//EN" "http://www.w3.org/Graphics/SVG/1.1/DTD/svg11.dtd">
<!-- Creator: CorelDRAW X8 -->
<svg xmlns="http://www.w3.org/2000/svg" xml:space="preserve" width="8.45878in" height="10.2143in" version="1.1" style="shape-rendering:geometricPrecision; text-rendering:geometricPrecision; image-rendering:optimizeQuality; fill-rule:evenodd; clip-rule:evenodd"
viewBox="0 0 3756 4535"
 xmlns:xlink="http://www.w3.org/1999/xlink">
 <defs>
  <style type="text/css">
   <![CDATA[
    .fil0 {fill:#0C344B}
   ]]>
  </style>
 </defs>
 <g id="Layer_x0020_1">
  <metadata id="CorelCorpID_0Corel-Layer"/>
  <path class="fil0" d="M3731 3455l-1560 -3312 0 0c-39,-83 -121,-138 -213,-143 -95,-5 -180,41 -228,119l-1691 2740c-26,40 -39,87 -39,135 0,50 14,98 42,140l826 1281c50,76 135,120 224,120 25,0 50,-3 75,-11l2401 -709c73,-22 133,-74 165,-143 15,-34 23,-70 23,-107 0,-38 -9,-75 -25,-110l0 0zm-349 142l-2037 603c-62,18 -121,-36 -108,-98l727 -3485c14,-65 104,-75 132,-15l1347 2861c26,54 -3,117 -61,134l0 0z"/>
 </g>
</svg>
