<?xml version="1.0" encoding="UTF-8"?>
<!DOCTYPE svg PUBLIC "-//W3C//DTD SVG 1.1//EN" "http://www.w3.org/Graphics/SVG/1.1/DTD/svg11.dtd">
<!-- Creator: CorelDRAW X8 -->
<svg xmlns="http://www.w3.org/2000/svg" xml:space="preserve" width="22.8542in" height="20.3479in" version="1.1" style="shape-rendering:geometricPrecision; text-rendering:geometricPrecision; image-rendering:optimizeQuality; fill-rule:evenodd; clip-rule:evenodd"
viewBox="0 0 30616 27259"
 xmlns:xlink="http://www.w3.org/1999/xlink">
 <defs>
  <style type="text/css">
   <![CDATA[
    .fil0 {fill:#00A7D4}
   ]]>
  </style>
 </defs>
 <g id="Layer_x0020_1">
  <metadata id="CorelCorpID_0Corel-Layer"/>
  <path class="fil0" d="M30616 13629c0,-2028 -2540,-3950 -6434,-5142 899,-3969 499,-7127 -1261,-8138 -405,-237 -879,-349 -1397,-349l0 1392c287,0 518,56 711,162 849,487 1217,2340 930,4724 -69,587 -181,1204 -318,1835 -1224,-300 -2559,-531 -3963,-681 -843,-1154 -1716,-2202 -2596,-3120 2034,-1891 3938,-2920 5236,-2920l0 -1392c-1717,0 -3957,1217 -6228,3339 -2272,-2110 -4519,-3314 -6235,-3314l0 1392c1292,0 3208,1023 5242,2901 -873,918 -1747,1960 -2577,3114 -1410,150 -2746,381 -3969,687 -144,-624 -250,-1229 -325,-1810 -293,-2384 69,-4237 912,-4730 187,-112 430,-162 717,-162l0 -1392c-524,0 -998,112 -1410,349 -1754,1011 -2147,4163 -1242,8119 -3882,1199 -6409,3114 -6409,5136 0,2028 2540,3951 6434,5143 -899,3968 -499,7126 1261,8137 405,237 879,350 1404,350 1716,0 3962,-1224 6234,-3345 2272,2109 4518,3320 6234,3320 524,0 999,-113 1411,-350 1753,-1011 2146,-4162 1241,-8119 3870,-1192 6397,-3114 6397,-5136l0 0zm-8125 -4162c-231,805 -518,1635 -843,2465 -255,-499 -524,-999 -817,-1498 -287,-499 -593,-986 -899,-1460 886,131 1741,293 2559,493zm-2858 6646c-487,843 -986,1641 -1504,2384 -930,81 -1872,125 -2821,125 -942,0 -1885,-44 -2808,-119 -518,-742 -1024,-1535 -1510,-2371 -475,-818 -905,-1648 -1298,-2484 386,-836 823,-1672 1291,-2490 487,-842 986,-1641 1504,-2384 930,-81 1872,-125 2821,-125 942,0 1885,44 2808,119 518,743 1024,1535 1510,2371 475,818 905,1648 1298,2484 -393,836 -823,1673 -1291,2490zm2015 -811c337,836 624,1672 862,2484 -818,199 -1679,368 -2572,499 306,-481 612,-974 899,-1479 287,-499 556,-1005 811,-1504l0 0zm-6328 6658c-580,-599 -1160,-1266 -1734,-1997 561,25 1135,44 1716,44 586,0 1167,-12 1735,-44 -562,731 -1142,1398 -1717,1997zm-4642 -3675c-887,-131 -1742,-294 -2559,-493 231,-805 518,-1635 842,-2465 256,499 525,998 818,1497 293,500 593,986 899,1461zm4611 -12987c581,599 1161,1267 1735,1997 -561,-25 -1136,-44 -1716,-44 -587,0 -1167,13 -1735,44 562,-730 1142,-1398 1716,-1997zm-4618 3676c-305,480 -611,973 -898,1479 -287,499 -556,998 -812,1498 -337,-837 -624,-1673 -861,-2484 818,-194 1679,-362 2571,-493l0 0zm-5647 7813c-2210,-942 -3639,-2178 -3639,-3158 0,-979 1429,-2221 3639,-3157 536,-231 1123,-437 1728,-631 356,1223 824,2497 1404,3801 -574,1298 -1036,2565 -1385,3782 -618,-194 -1204,-406 -1747,-637l0 0zm3357 8918c-849,-487 -1217,-2340 -930,-4724 69,-587 181,-1205 318,-1835 1224,299 2559,530 3963,680 843,1155 1716,2203 2596,3120 -2034,1891 -3944,2927 -5242,2927 -281,-6 -518,-62 -705,-168l0 0zm14803 -4756c293,2384 -69,4238 -912,4731 -187,112 -430,162 -717,162 -1292,0 -3208,-1030 -5242,-2908 873,-917 1747,-1960 2577,-3114 1410,-150 2746,-381 3969,-687 144,631 256,1236 325,1816l0 0zm2402 -4162c-537,231 -1123,437 -1728,630 -356,-1223 -824,-2496 -1405,-3800 575,-1298 1036,-2565 1386,-3782 618,194 1204,406 1753,637 2210,942 3639,2178 3639,3157 -7,980 -1436,2222 -3645,3158l0 0z"/>
 </g>
</svg>
