<?xml version="1.0" encoding="UTF-8"?>
<!DOCTYPE svg PUBLIC "-//W3C//DTD SVG 1.1//EN" "http://www.w3.org/Graphics/SVG/1.1/DTD/svg11.dtd">
<!-- Creator: CorelDRAW X8 -->
<svg xmlns="http://www.w3.org/2000/svg" xml:space="preserve" width="4.76521in" height="4.68803in" version="1.1" style="shape-rendering:geometricPrecision; text-rendering:geometricPrecision; image-rendering:optimizeQuality; fill-rule:evenodd; clip-rule:evenodd"
viewBox="0 0 14412 14178"
 xmlns:xlink="http://www.w3.org/1999/xlink">
 <defs>
  <style type="text/css">
   <![CDATA[
    .str0 {stroke:#1B1513;stroke-width:20.1583}
    .str2 {stroke:#A96658;stroke-width:9.073}
    .str1 {stroke:#CA8577;stroke-width:9.073}
    .fil2 {fill:#130D0B}
    .fil8 {fill:#160907}
    .fil3 {fill:#1B1513}
    .fil0 {fill:#423D36}
    .fil5 {fill:#46413A}
    .fil1 {fill:#716259}
    .fil7 {fill:#A96658}
    .fil9 {fill:#AF756C}
    .fil4 {fill:#B97769}
    .fil6 {fill:#CA8577}
    .fil11 {fill:#CF2C57}
    .fil10 {fill:#EB7233}
   ]]>
  </style>
 </defs>
 <g id="Layer_x0020_1">
  <metadata id="CorelCorpID_0Corel-Layer"/>
  <g id="_2376753889968">
   <path class="fil0" d="M2142 4308c-362,-538 -254,-3367 1505,-1273l255 371c-180,186 158,56 -97,40 -371,-24 352,150 -234,-81 1,7 35,241 36,263l-300 -53 60 465c-395,147 -200,10 -359,254 -256,394 -102,113 -305,-33 -54,326 53,138 -43,478l-207 -185c56,528 61,211 -98,365l-213 -611zm963 -2975c-267,-253 -1052,-261 -1424,122 -670,693 -547,1823 -361,2718 92,442 245,400 311,937 -411,-229 -303,-913 -825,405 -812,2047 -735,4020 477,5766 5,8 117,151 131,169l321 349c1388,1260 3036,1655 4883,1687 1266,22 912,-88 2001,-248 351,-51 458,-193 916,-434 1007,-529 2220,-1723 2852,-2729l182 -341c422,-683 578,-1986 410,-2747 -190,-1242 -169,-900 -531,-1933 -85,-140 -50,-49 -137,-196l-459 -650c-500,-649 -350,-354 -734,-751 -1686,-1741 -4842,-2018 -6881,-1233 -362,103 -725,-957 -1132,-891z"/>
   <g>
    <path class="fil1" d="M8911 4007c1638,0 2966,1366 2966,3051 0,1686 -1328,3052 -2966,3052 -1638,0 -2966,-1366 -2966,-3052 0,-1685 1328,-3051 2966,-3051z"/>
    <path id="1" class="fil2" d="M8911 3906c847,0 1614,354 2170,925 554,570 897,1358 897,2227 0,870 -343,1658 -897,2228 -556,571 -1323,924 -2170,924 -847,0 -1614,-353 -2169,-924 -555,-570 -898,-1358 -898,-2228 0,-869 343,-1657 898,-2227 555,-571 1322,-925 2169,-925zm0 101c1638,0 2966,1366 2966,3051 0,1686 -1328,3052 -2966,3052 -1638,0 -2966,-1366 -2966,-3052 0,-1685 1328,-3051 2966,-3051z"/>
   </g>
   <path class="fil3 str0" d="M4237 2224c2039,-785 5195,-508 6881,1233 384,397 234,102 734,751l459 650c87,147 52,56 137,196 482,1194 364,1006 531,1933 168,761 12,2064 -410,2747l-182 341c-632,1006 -1845,2200 -2852,2729 -458,241 -565,383 -916,434 -1089,160 -735,270 -2001,248 -1847,-32 -3495,-427 -4883,-1687l-321 -349c-14,-18 -126,-161 -131,-169 -1212,-1746 -1289,-3719 -477,-5766 522,-1318 414,-634 825,-405 -66,-537 -219,-495 -311,-937 -186,-895 -309,-2025 361,-2718 372,-383 1157,-375 1424,-122 518,206 682,756 864,999 268,-108 -7,-10 268,-108zm4719 -1098c151,131 -53,-32 151,131 61,-477 649,-869 1051,-1032 1639,-663 1523,1491 1331,2412 -40,190 -103,469 -247,569 -284,-433 -99,-262 -473,-304 -283,-424 -1085,-660 -1491,-902 612,-1249 1889,-1794 1906,162 46,16 -235,777 -169,740 44,-24 79,170 115,127 399,-472 357,-2201 -502,-2312 -918,-140 -1285,772 -1502,1068 -119,-152 -123,-67 -174,-237 -24,-81 152,-171 155,-291 -14,19 -145,-165 -151,-131 -14,71 -195,337 -219,749 -951,-216 -1451,-304 -2478,-216 -1261,109 -1187,220 -2165,508l-90 -151c-25,-39 -59,-93 -89,-137 -598,-882 -1512,-1146 -2279,-541 -735,564 -749,2357 -369,3119 -15,10 -39,7 -46,30 -7,24 -36,25 -45,32 -62,49 -48,28 -126,104 -68,66 -144,178 -189,257 -772,1355 -525,1527 -722,1878 -94,691 -146,977 -124,1723l53 538 165 710 292 757c181,353 272,518 463,833 303,372 361,585 741,932 306,280 375,404 773,632l674 440c911,570 2327,915 3493,833 179,27 320,-13 554,-17 130,-2 404,-70 1015,-195 845,-174 2280,-1002 2893,-1625 451,-459 836,-867 1178,-1428 476,-831 335,-483 687,-1350 490,-2039 435,-2716 -349,-4607 -62,-73 -963,-1455 -1191,-1464 147,-912 725,-2321 74,-3101 -855,-1026 -2433,441 -2574,757z"/>
   <path class="fil4" d="M11184 2162c-17,-1956 -1294,-1411 -1906,-162 406,242 1208,478 1491,902 91,15 184,18 239,0 57,-106 145,-508 176,-740z"/>
   <path class="fil5" d="M8925 1529c51,170 82,104 201,256 217,-296 584,-1208 1502,-1068 939,143 756,1895 479,2318l135 171c144,-100 207,-379 247,-569 192,-921 308,-3075 -1331,-2412 -769,337 -1037,792 -1233,1304z"/>
   <path class="fil6 str1" d="M2142 4308c178,235 42,86 319,-206 15,-16 60,-60 75,-75l1111 -992c-1759,-2094 -1867,735 -1505,1273z"/>
   <path class="fil7 str2" d="M2142 4308l213 611c159,-154 154,163 98,-365l207 185c96,-340 -11,-152 43,-478 203,146 49,427 305,33 159,-244 -36,-107 359,-254l-60 -465 300 53c-1,-22 -35,-256 -36,-263 586,231 -137,57 234,81 255,16 -83,146 97,-40l-255 -371 -1111 992c-15,15 -60,59 -75,75 -277,292 -141,441 -319,206z"/>
   <ellipse class="fil8" cx="3820" cy="8246" rx="1159" ry="1117"/>
   <ellipse class="fil9" cx="3820" cy="8246" rx="986" ry="950"/>
   <ellipse class="fil3" cx="13253" cy="5946" rx="1159" ry="1117"/>
   <ellipse class="fil9" cx="13253" cy="5946" rx="986" ry="950"/>
   <path class="fil3" d="M4441 5503c254,142 272,352 272,449 0,97 20,357 -201,377 -222,20 -383,-266 -383,-363 0,-97 0,-362 312,-463z"/>
   <path class="fil3" d="M11233 3782c222,-34 308,326 308,407 0,80 -61,307 -234,309 -209,18 -304,-248 -304,-329 0,-80 14,-378 230,-387z"/>
   <g id="_2376753890864">
    <g>
     <path class="fil10" d="M8742 5904c375,-101 581,-367 549,-488 -33,-121 -374,-263 -750,-162 -375,101 -642,406 -610,526 32,121 435,224 811,124z"/>
     <path class="fil3" d="M8912 7186c89,-22 177,-50 289,-95 112,-45 249,-106 369,-164 120,-59 224,-114 318,-167 94,-52 179,-100 251,-133 72,-34 132,-52 191,-61 59,-9 116,-8 164,1 48,8 85,23 122,51 37,28 74,68 101,118 27,50 44,108 50,174 7,66 3,138 -16,223 -20,86 -54,185 -101,275 -47,90 -106,172 -195,261 -90,89 -210,184 -319,256 -109,73 -208,123 -300,163 -93,41 -179,73 -278,103 -99,30 -211,60 -344,84 -131,24 -282,44 -491,77 16,23 31,47 45,72 79,144 128,341 128,556 0,214 -49,411 -128,555 -89,162 -218,263 -366,263 -148,0 -277,-101 -365,-263 -79,-144 -128,-341 -128,-555 0,-205 44,-393 116,-534 -188,7 -306,-20 -421,-57 -118,-38 -231,-85 -330,-147 -99,-61 -182,-136 -235,-217 -53,-81 -75,-168 -77,-249 -2,-81 17,-156 52,-235 35,-78 86,-160 137,-218 51,-58 102,-92 167,-115 65,-23 145,-36 238,-38 94,-2 201,7 283,16 81,8 137,17 221,27 84,10 196,23 298,27 101,4 193,-1 284,-10 91,-9 181,-23 270,-44zm-170 -1282c375,-101 581,-367 549,-488 -33,-121 -374,-263 -750,-162 -376,101 -642,406 -610,526 32,121 435,224 811,124zm529 -57l1 0c-115,102 -277,197 -478,251l0 0 118 1088 -126 25 -133 -1083c-172,27 -342,21 -481,-5 -228,-43 -399,-155 -435,-291 -37,-136 59,-342 248,-504 128,-111 303,-215 504,-268 201,-54 395,-50 551,-16 236,51 409,186 445,320 36,135 -39,328 -214,483z"/>
    </g>
    <path class="fil11" d="M8402 9697c217,0 393,-321 393,-717 0,-363 -147,-663 -339,-711l-57 859 -54 -858c-190,51 -335,349 -335,710 0,396 176,717 392,717z"/>
   </g>
  </g>
 </g>
</svg>
